<?xml version="1.0" encoding="UTF-8" standalone="no"?>
<!-- Generator: Adobe Illustrator 17.1.0, SVG Export Plug-In . SVG Version: 6.00 Build 0)  -->

<svg
   xmlns:dc="http://purl.org/dc/elements/1.1/"
   xmlns:cc="http://creativecommons.org/ns#"
   xmlns:rdf="http://www.w3.org/1999/02/22-rdf-syntax-ns#"
   xmlns:svg="http://www.w3.org/2000/svg"
   xmlns="http://www.w3.org/2000/svg"
   xmlns:sodipodi="http://sodipodi.sourceforge.net/DTD/sodipodi-0.dtd"
   xmlns:inkscape="http://www.inkscape.org/namespaces/inkscape"
   version="1.1"
   id="Capa_1"
   x="0px"
   y="0px"
   viewBox="0 0 455 682.5"
   xml:space="preserve"
   width="512"
   height="768"
   sodipodi:docname="no_cover.svg"
   inkscape:version="0.92.3 (2405546, 2018-03-11)"><metadata
   id="metadata4688"><rdf:RDF><cc:Work
       rdf:about=""><dc:format>image/svg+xml</dc:format><dc:type
         rdf:resource="http://purl.org/dc/dcmitype/StillImage" /><dc:title></dc:title></cc:Work></rdf:RDF></metadata><defs
   id="defs4686" /><sodipodi:namedview
   pagecolor="#ffffff"
   bordercolor="#666666"
   borderopacity="1"
   objecttolerance="10"
   gridtolerance="10"
   guidetolerance="10"
   inkscape:pageopacity="0"
   inkscape:pageshadow="2"
   inkscape:window-width="1920"
   inkscape:window-height="1017"
   id="namedview4684"
   showgrid="false"
   inkscape:zoom="0.4609375"
   inkscape:cx="256"
   inkscape:cy="256"
   inkscape:window-x="-8"
   inkscape:window-y="1072"
   inkscape:window-maximized="1"
   inkscape:current-layer="Capa_1" />
<g
   id="g4651"
   transform="matrix(0.71186441,0,0,0.67372881,63.984383,198.21939)">
	<path
   d="m 360.967,130.599 c -4.06,-0.818 -8.018,1.8 -8.841,5.86 -0.823,4.06 1.801,8.018 5.86,8.841 1.147,0.232 2.013,1.286 2.013,2.45 v 160 c 0,1.355 -1.145,2.5 -2.5,2.5 H 179.676 c -4.142,0 -7.5,3.357 -7.5,7.5 0,4.143 3.358,7.5 7.5,7.5 H 357.5 c 9.649,0 17.5,-7.851 17.5,-17.5 v -160 c 0,-8.29 -5.901,-15.503 -14.033,-17.151 z"
   id="path4637"
   inkscape:connector-curvature="0"
   style="fill:#ffffff" />
	<path
   d="M 274.824,130.25 H 97.5 c -9.649,0 -17.5,7.851 -17.5,17.5 v 160 c 0,8.063 5.48,15.046 13.326,16.982 0.604,0.149 1.208,0.221 1.803,0.221 3.369,0 6.432,-2.287 7.276,-5.705 0.992,-4.021 -1.463,-8.086 -5.484,-9.078 -0.955,-0.235 -1.92,-1.143 -1.92,-2.42 v -160 c 0,-1.355 1.145,-2.5 2.5,-2.5 h 177.324 c 4.142,0 7.5,-3.357 7.5,-7.5 0,-4.143 -3.359,-7.5 -7.501,-7.5 z"
   id="path4639"
   inkscape:connector-curvature="0"
   style="fill:#ffffff" />
	<path
   d="m 235.363,170.798 c -2.655,-0.363 -5.3,-0.548 -7.863,-0.548 -31.706,0 -57.5,25.794 -57.5,57.5 0,2.563 0.185,5.209 0.548,7.863 0.515,3.759 3.731,6.483 7.421,6.483 0.339,0 0.682,-0.023 1.027,-0.07 4.104,-0.562 6.975,-4.345 6.413,-8.448 -0.271,-1.982 -0.409,-3.943 -0.409,-5.828 0,-23.435 19.065,-42.5 42.5,-42.5 1.884,0 3.845,0.138 5.828,0.409 4.108,0.564 7.886,-2.309 8.448,-6.413 0.562,-4.103 -2.309,-7.887 -6.413,-8.448 z"
   id="path4641"
   inkscape:connector-curvature="0"
   style="fill:#ffffff" />
	<path
   d="m 219.127,284.636 c 2.789,0.407 5.605,0.614 8.373,0.614 31.706,0 57.5,-25.794 57.5,-57.5 0,-2.77 -0.207,-5.587 -0.613,-8.373 -0.599,-4.099 -4.408,-6.934 -8.505,-6.337 -4.099,0.599 -6.936,4.406 -6.337,8.505 0.303,2.071 0.456,4.158 0.456,6.205 0,23.435 -19.065,42.5 -42.5,42.5 -2.044,0 -4.132,-0.153 -6.205,-0.456 -4.099,-0.6 -7.907,2.238 -8.505,6.337 -0.598,4.099 2.237,7.906 6.336,8.505 z"
   id="path4643"
   inkscape:connector-curvature="0"
   style="fill:#ffffff" />
	<path
   d="m 318.5,203.25 c 9.098,0 16.5,-7.402 16.5,-16.5 0,-8.318 -6.227,-15.355 -14.484,-16.37 -2.293,-0.277 -4.585,0.509 -6.218,2.142 l -10.027,10.027 c -1.633,1.632 -2.422,3.926 -2.141,6.217 1.015,8.257 8.053,14.484 16.37,14.484 z"
   id="path4645"
   inkscape:connector-curvature="0"
   style="fill:#ffffff" />
	<path
   d="m 117.5,114.75 h 30 c 4.142,0 7.5,-3.357 7.5,-7.5 0,-4.143 -3.358,-7.5 -7.5,-7.5 h -30 c -4.142,0 -7.5,3.357 -7.5,7.5 0,4.143 3.358,7.5 7.5,7.5 z"
   id="path4647"
   inkscape:connector-curvature="0"
   style="fill:#ffffff" />
	<path
   d="M 388.367,66.633 C 345.397,23.664 288.268,0 227.5,0 166.732,0 109.603,23.664 66.633,66.633 23.664,109.603 0,166.732 0,227.5 0,288.268 23.664,345.397 66.633,388.367 109.603,431.336 166.732,455 227.5,455 288.268,455 345.397,431.336 388.367,388.367 431.336,345.397 455,288.268 455,227.5 455,166.732 431.336,109.603 388.367,66.633 Z M 15,227.5 C 15,110.327 110.327,15 227.5,15 283.394,15 334.307,36.703 372.283,72.11 L 72.11,372.283 C 36.703,334.307 15,283.395 15,227.5 Z M 227.5,440 C 171.606,440 120.693,418.297 82.717,382.89 L 382.89,82.717 C 418.297,120.693 440,171.606 440,227.5 440,344.673 344.673,440 227.5,440 Z"
   id="path4649"
   inkscape:connector-curvature="0"
   style="fill:#ffffff" />
</g>
<g
   id="g4653"
   transform="translate(0,227.5)">
</g>
<g
   id="g4655"
   transform="translate(0,227.5)">
</g>
<g
   id="g4657"
   transform="translate(0,227.5)">
</g>
<g
   id="g4659"
   transform="translate(0,227.5)">
</g>
<g
   id="g4661"
   transform="translate(0,227.5)">
</g>
<g
   id="g4663"
   transform="translate(0,227.5)">
</g>
<g
   id="g4665"
   transform="translate(0,227.5)">
</g>
<g
   id="g4667"
   transform="translate(0,227.5)">
</g>
<g
   id="g4669"
   transform="translate(0,227.5)">
</g>
<g
   id="g4671"
   transform="translate(0,227.5)">
</g>
<g
   id="g4673"
   transform="translate(0,227.5)">
</g>
<g
   id="g4675"
   transform="translate(0,227.5)">
</g>
<g
   id="g4677"
   transform="translate(0,227.5)">
</g>
<g
   id="g4679"
   transform="translate(0,227.5)">
</g>
<g
   id="g4681"
   transform="translate(0,227.5)">
</g>
</svg>